<?xml version="1.0" encoding="UTF-8" standalone="no"?>
<!-- Created with Inkscape (http://www.inkscape.org/) -->

<svg
   xmlns:dc="http://purl.org/dc/elements/1.1/"
   xmlns:cc="http://creativecommons.org/ns#"
   xmlns:rdf="http://www.w3.org/1999/02/22-rdf-syntax-ns#"
   xmlns:svg="http://www.w3.org/2000/svg"
   xmlns="http://www.w3.org/2000/svg"
   xmlns:xlink="http://www.w3.org/1999/xlink"
   xmlns:sodipodi="http://sodipodi.sourceforge.net/DTD/sodipodi-0.dtd"
   xmlns:inkscape="http://www.inkscape.org/namespaces/inkscape"
   width="48px"
   height="48px"
   id="svg2985"
   version="1.1"
   inkscape:version="0.48.2 r9819"
   sodipodi:docname="favicon.svg">
  <defs
     id="defs2987">
    <radialGradient
       gradientUnits="userSpaceOnUse"
       gradientTransform="matrix(1.402663,1.176399e-16,-9.356816e-17,1.115648,-6.237984,5.33075e-2)"
       r="18.370251"
       fy="10.943316"
       fx="15.491823"
       cy="10.943316"
       cx="15.491823"
       id="radialGradient2813"
       xlink:href="#linearGradient2807"
       inkscape:collect="always" />
    <radialGradient
       r="35.934704"
       fy="424.15677"
       fx="131.23691"
       cy="424.15677"
       cx="131.23691"
       gradientTransform="matrix(0.101953,-4.272301e-2,9.621296e-2,0.229599,-48.67227,-64.24148)"
       gradientUnits="userSpaceOnUse"
       id="radialGradient2798"
       xlink:href="#linearGradient8543"
       inkscape:collect="always" />
    <radialGradient
       gradientUnits="userSpaceOnUse"
       gradientTransform="matrix(1,0,2.702168e-19,0.415385,-2.283104e-16,26.70146)"
       r="30.365856"
       fy="45.673546"
       fx="29.898689"
       cy="45.673546"
       cx="29.898689"
       id="radialGradient18290"
       xlink:href="#linearGradient18284"
       inkscape:collect="always" />
    <radialGradient
       gradientUnits="userSpaceOnUse"
       gradientTransform="matrix(0.105628,-4.514018e-2,6.692574e-2,0.156607,-46.01605,-24.35485)"
       r="103.26014"
       fy="409.83737"
       fx="340.35886"
       cy="409.83737"
       cx="340.35886"
       id="radialGradient13895"
       xlink:href="#linearGradient8543"
       inkscape:collect="always" />
    <radialGradient
       gradientUnits="userSpaceOnUse"
       gradientTransform="matrix(8.174351e-2,1.024998e-2,-4.335971e-2,0.345793,6.123413,-84.50421)"
       r="38.451698"
       fy="270.67969"
       fx="424.99243"
       cy="270.67969"
       cx="424.99243"
       id="radialGradient11208"
       xlink:href="#linearGradient11202"
       inkscape:collect="always" />
    <radialGradient
       gradientUnits="userSpaceOnUse"
       gradientTransform="matrix(0.272962,-7.1724e-2,5.616202e-2,0.213737,-78.54657,-24.30491)"
       r="48.782982"
       fy="243.06874"
       fx="293.81989"
       cy="243.06874"
       cx="293.81989"
       id="radialGradient10317"
       xlink:href="#linearGradient8543"
       inkscape:collect="always" />
    <radialGradient
       gradientUnits="userSpaceOnUse"
       gradientTransform="matrix(0.224796,1.017229e-2,-9.759474e-3,0.215674,-73.87964,-54.89804)"
       r="40.975471"
       fy="286.46918"
       fx="500.97794"
       cy="286.46918"
       cx="500.97794"
       id="radialGradient9434"
       xlink:href="#linearGradient8543"
       inkscape:collect="always" />
    <radialGradient
       gradientUnits="userSpaceOnUse"
       gradientTransform="matrix(0.163532,-1.065754e-2,1.078108e-2,0.165425,-46.18187,-65.65506)"
       r="235.88632"
       fy="685.99139"
       fx="420.87839"
       cy="685.99139"
       cx="420.87839"
       id="radialGradient8549"
       xlink:href="#linearGradient8543"
       inkscape:collect="always" />
    <radialGradient
       r="297.21338"
       fy="-72.420044"
       fx="336.73767"
       cy="-72.420044"
       cx="336.73767"
       gradientTransform="matrix(0.136507,-2.396132e-18,-4.484926e-5,7.137743e-2,-23.39816,12.31028)"
       gradientUnits="userSpaceOnUse"
       id="radialGradient7666"
       xlink:href="#linearGradient5012"
       inkscape:collect="always" />
    <linearGradient
       id="linearGradient5012">
      <stop
         id="stop5014"
         offset="0"
         style="stop-color:#fdf188;stop-opacity:1;" />
      <stop
         id="stop5016"
         offset="1"
         style="stop-color:#d3bc00;stop-opacity:1;" />
    </linearGradient>
    <linearGradient
       id="linearGradient8543">
      <stop
         id="stop8545"
         offset="0"
         style="stop-color:#fffef5;stop-opacity:0.94117647;" />
      <stop
         id="stop8547"
         offset="1"
         style="stop-color:#fce94f;stop-opacity:0;" />
    </linearGradient>
    <linearGradient
       id="linearGradient11202">
      <stop
         id="stop11204"
         offset="0"
         style="stop-color:#c4a000;stop-opacity:1;" />
      <stop
         id="stop11206"
         offset="1"
         style="stop-color:#c4a000;stop-opacity:0;" />
    </linearGradient>
    <linearGradient
       id="linearGradient18284">
      <stop
         id="stop18286"
         offset="0"
         style="stop-color:#000000;stop-opacity:1;" />
      <stop
         style="stop-color:#000000;stop-opacity:1;"
         offset="0.5"
         id="stop20913" />
      <stop
         style="stop-color:#000000;stop-opacity:0;"
         offset="1"
         id="stop19165" />
    </linearGradient>
    <linearGradient
       id="linearGradient2807"
       inkscape:collect="always">
      <stop
         id="stop2809"
         offset="0"
         style="stop-color:#ffffff;stop-opacity:1;" />
      <stop
         id="stop2811"
         offset="1"
         style="stop-color:#ffffff;stop-opacity:0;" />
    </linearGradient>
    <inkscape:perspective
       id="perspective47"
       inkscape:persp3d-origin="24 : 16 : 1"
       inkscape:vp_z="48 : 24 : 1"
       inkscape:vp_y="0 : 1000 : 0"
       inkscape:vp_x="0 : 24 : 1"
       sodipodi:type="inkscape:persp3d" />
  </defs>
  <sodipodi:namedview
     id="base"
     pagecolor="#ffffff"
     bordercolor="#666666"
     borderopacity="1.0"
     inkscape:pageopacity="0.0"
     inkscape:pageshadow="2"
     inkscape:zoom="9.8994949"
     inkscape:cx="14.993192"
     inkscape:cy="5.2702268"
     inkscape:current-layer="g3878"
     showgrid="true"
     inkscape:grid-bbox="true"
     inkscape:document-units="px"
     inkscape:window-width="1280"
     inkscape:window-height="1002"
     inkscape:window-x="1592"
     inkscape:window-y="-8"
     inkscape:window-maximized="1">
    <inkscape:grid
       type="xygrid"
       id="grid3853"
       empspacing="5"
       visible="true"
       enabled="false"
       snapvisiblegridlinesonly="true"
       originx="0.5px"
       originy="0.5px" />
    <inkscape:grid
       type="xygrid"
       id="grid3860"
       empspacing="5"
       visible="true"
       enabled="true"
       snapvisiblegridlinesonly="true" />
  </sodipodi:namedview>
  <metadata
     id="metadata2990">
    <rdf:RDF>
      <cc:Work
         rdf:about="">
        <dc:format>image/svg+xml</dc:format>
        <dc:type
           rdf:resource="http://purl.org/dc/dcmitype/StillImage" />
        <dc:title></dc:title>
      </cc:Work>
    </rdf:RDF>
  </metadata>
  <g
     id="layer1"
     inkscape:label="Layer 1"
     inkscape:groupmode="layer">
    <rect
       style="fill:#729fcf;fill-opacity:1;stroke:#3465a4;stroke-width:1.01143575"
       id="rect3083"
       width="47"
       height="30"
       x="0.5"
       y="9"
       ry="5.017065" />
  </g>
  <g
     inkscape:groupmode="layer"
     id="layer2"
     inkscape:label="Text"
     style="display:none">
    <text
       xml:space="preserve"
       style="font-size:22.95467377px;font-style:normal;font-weight:normal;line-height:125%;letter-spacing:0px;word-spacing:0px;fill:#ffffff;fill-opacity:1;stroke:#3465a4;stroke-opacity:1;font-family:Sans"
       x="3.9393382"
       y="32.21571"
       id="text3856"
       sodipodi:linespacing="125%"><tspan
         sodipodi:role="line"
         id="tspan3858"
         x="3.9393382"
         y="32.21571"
         style="letter-spacing:0;fill:#ffffff;fill-opacity:1;stroke:#3465a4;stroke-opacity:1"
         dx="0 -1.642857 -1.4999999">C++</tspan></text>
  </g>
  <g
     inkscape:label="Text with linked offset"
     id="g3862"
     inkscape:groupmode="layer"
     style="display:none">
    <text
       sodipodi:linespacing="125%"
       id="text3864"
       y="32.21571"
       x="3.9393382"
       style="font-size:22.95467377px;font-style:normal;font-weight:normal;line-height:125%;letter-spacing:0px;word-spacing:0px;fill:#ffffff;fill-opacity:1;stroke:#3465a4;stroke-opacity:1;font-family:Sans"
       xml:space="preserve"><tspan
         dx="0"
         style="letter-spacing:0;fill:#ffffff;fill-opacity:1;stroke:#3465a4;stroke-opacity:1"
         y="32.21571"
         x="3.9393382"
         id="tspan3866"
         sodipodi:role="line"
         dy="0">C</tspan></text>
    <text
       xml:space="preserve"
       style="font-size:22.95467377px;font-style:normal;font-weight:normal;line-height:125%;letter-spacing:0px;word-spacing:0px;fill:#ffffff;fill-opacity:1;stroke:#3465a4;stroke-opacity:1;font-family:Sans"
       x="19.214285"
       y="32.21571"
       id="text3872"
       sodipodi:linespacing="125%"><tspan
         dy="-0.5"
         sodipodi:role="line"
         id="tspan3874"
         x="19.214285"
         y="32.21571"
         style="letter-spacing:0;fill:#ffffff;fill-opacity:1;stroke:#3465a4;stroke-opacity:1"
         dx="-0.21428552 -5.1014318e-008">++</tspan></text>
    <path
       sodipodi:type="inkscape:offset"
       inkscape:radius="0.90913731"
       inkscape:original="M 24.75 18.1875 L 24.75 22.65625 L 20.28125 22.65625 L 20.28125 24.5625 L 24.75 24.5625 L 24.75 29.0625 L 26.65625 29.0625 L 26.65625 24.5625 L 31.125 24.5625 L 31.125 22.65625 L 26.65625 22.65625 L 26.65625 18.1875 L 24.75 18.1875 z M 38.15625 18.1875 L 38.15625 22.65625 L 33.6875 22.65625 L 33.6875 24.5625 L 38.15625 24.5625 L 38.15625 29.0625 L 40.0625 29.0625 L 40.0625 24.5625 L 44.53125 24.5625 L 44.53125 22.65625 L 40.0625 22.65625 L 40.0625 18.1875 L 38.15625 18.1875 z "
       xlink:href="#text3872"
       style="font-size:22.95467377px;font-style:normal;font-weight:normal;line-height:125%;letter-spacing:0px;word-spacing:0px;fill:#ffffff;fill-opacity:1;stroke:#3465a4;stroke-opacity:1;font-family:Sans"
       id="path3876"
       inkscape:href="#text3872"
       d="m 24.5625,17.28125 a 0.90922822,0.90922822 0 0 0 -0.71875,0.90625 l 0,3.5625 -3.5625,0 A 0.90922822,0.90922822 0 0 0 19.375,22.65625 l 0,1.90625 a 0.90922822,0.90922822 0 0 0 0.90625,0.90625 l 3.5625,0 0,3.59375 A 0.90922822,0.90922822 0 0 0 24.75,29.96875 l 1.90625,0 A 0.90922822,0.90922822 0 0 0 27.5625,29.0625 l 0,-3.59375 3.5625,0 a 0.90922822,0.90922822 0 0 0 0.90625,-0.90625 l 0,-1.90625 A 0.90922822,0.90922822 0 0 0 31.125,21.75 l -3.5625,0 0,-3.5625 a 0.90922822,0.90922822 0 0 0 -0.90625,-0.90625 l -1.90625,0 a 0.90922822,0.90922822 0 0 0 -0.1875,0 z m 13.40625,0 A 0.90922822,0.90922822 0 0 0 37.25,18.1875 l 0,3.5625 -3.5625,0 a 0.90922822,0.90922822 0 0 0 -0.90625,0.90625 l 0,1.90625 a 0.90922822,0.90922822 0 0 0 0.90625,0.90625 l 3.5625,0 0,3.59375 a 0.90922822,0.90922822 0 0 0 0.90625,0.90625 l 1.90625,0 a 0.90922822,0.90922822 0 0 0 0.90625,-0.90625 l 0,-3.59375 3.5625,0 A 0.90922822,0.90922822 0 0 0 45.4375,24.5625 l 0,-1.90625 A 0.90922822,0.90922822 0 0 0 44.53125,21.75 l -3.5625,0 0,-3.5625 A 0.90922822,0.90922822 0 0 0 40.0625,17.28125 l -1.90625,0 a 0.90922822,0.90922822 0 0 0 -0.1875,0 z" />
    <path
       sodipodi:type="inkscape:offset"
       inkscape:radius="0.6146124"
       inkscape:original="M 12.84375 15.5 C 11.394131 15.500017 10.050508 15.838725 8.84375 16.5 C 7.636982 17.161307 6.7163169 18.13225 6.0625 19.40625 C 5.4086789 20.680276 5.0937489 22.163871 5.09375 23.875 C 5.0937489 25.444174 5.3584012 26.913838 5.9375 28.28125 C 6.5165948 29.64867 7.3591212 30.685182 8.46875 31.40625 C 9.5783697 32.12732 11.041576 32.5 12.8125 32.5 C 14.523629 32.5 15.97189 32.031514 17.15625 31.09375 C 18.340583 30.155988 19.137929 28.785865 19.59375 27 L 17.4375 26.46875 C 17.138598 27.851116 16.563099 28.891364 15.71875 29.59375 C 14.874378 30.296141 13.842963 30.625002 12.625 30.625 C 11.623714 30.625002 10.703049 30.390585 9.84375 29.875 C 8.9844391 29.359419 8.3447318 28.573629 7.9375 27.53125 C 7.5302602 26.48888 7.3124966 25.272313 7.3125 23.875 C 7.3124966 22.791537 7.5000241 21.738719 7.84375 20.71875 C 8.1874681 19.698804 8.7768977 18.886514 9.625 18.28125 C 10.473091 17.676014 11.518436 17.375015 12.78125 17.375 C 13.879657 17.375015 14.806433 17.642042 15.53125 18.1875 C 16.256043 18.732986 16.806404 19.585707 17.1875 20.78125 L 19.34375 20.28125 C 18.902874 18.764402 18.12082 17.586904 17 16.75 C 15.879154 15.913127 14.487629 15.500017 12.84375 15.5 z "
       xlink:href="#text3864"
       style="font-size:22.95467377px;font-style:normal;font-weight:normal;line-height:125%;letter-spacing:0px;word-spacing:0px;fill:#ffffff;fill-opacity:1;stroke:#3465a4;stroke-opacity:1;font-family:Sans"
       id="path3870"
       inkscape:href="#text3864"
       d="m 12.84375,14.875 c -1.545352,1.8e-5 -2.9834494,0.382586 -4.28125,1.09375 -1.3135743,0.719837 -2.328339,1.786587 -3.03125,3.15625 -0.7057109,1.375138 -1.0625011,2.963459 -1.0625,4.75 -1.1e-6,1.63828 0.2917043,3.205138 0.90625,4.65625 0.6190811,1.46184 1.5339132,2.584753 2.75,3.375 1.235485,0.802862 2.830348,1.21875 4.6875,1.21875 1.823311,0 3.421319,-0.535208 4.71875,-1.5625 1.307498,-1.035285 2.176583,-2.526958 2.65625,-4.40625 a 0.61467386,0.61467386 0 0 0 -0.4375,-0.75 L 17.59375,25.875 a 0.61467386,0.61467386 0 0 0 -0.75,0.46875 c -0.277922,1.285338 -0.810708,2.181855 -1.53125,2.78125 -0.727707,0.605343 -1.580171,0.875002 -2.6875,0.875 -0.905358,2e-6 -1.705052,-0.198026 -2.46875,-0.65625 C 9.4177896,28.900679 8.8659419,28.24919 8.5,27.3125 8.1247205,26.351935 7.9374968,25.208456 7.9375,23.875 c -3.2e-6,-1.012543 0.1755444,-2.005963 0.5,-2.96875 0.3073479,-0.912021 0.785187,-1.592558 1.53125,-2.125 0.73214,-0.522488 1.647346,-0.781236 2.8125,-0.78125 0.998802,1.4e-5 1.774304,0.235449 2.375,0.6875 0.598344,0.450319 1.082723,1.168272 1.4375,2.28125 A 0.61467386,0.61467386 0 0 0 17.3125,21.375 l 2.15625,-0.5 a 0.61467386,0.61467386 0 0 0 0.46875,-0.75 C 19.466048,18.502955 18.607447,17.170255 17.375,16.25 16.136445,15.32524 14.590594,14.875018 12.84375,14.875 z" />
  </g>
  <g
     style="display:inline"
     inkscape:groupmode="layer"
     id="g3878"
     inkscape:label="Text with linked offset copy">
    <text
       sodipodi:linespacing="125%"
       id="text3884"
       y="32.21571"
       x="19.214285"
       style="font-size:22.95467377px;font-style:normal;font-weight:normal;line-height:125%;letter-spacing:0px;word-spacing:0px;fill:#ffffff;fill-opacity:1;stroke:#3465a4;stroke-opacity:1;font-family:Sans"
       xml:space="preserve"><tspan
         dx="-0.21428552 -5.1014318e-008"
         style="letter-spacing:0;fill:#ffffff;fill-opacity:1;stroke:#3465a4;stroke-opacity:1"
         y="32.21571"
         x="19.214285"
         id="tspan3886"
         sodipodi:role="line"
         dy="-0.5">++</tspan></text>
    <path
       d="M 24.75,17.96875 A 0.20400485,0.20400485 0 0 0 24.71875,18 0.20400485,0.20400485 0 0 0 24.65625,18 0.20400485,0.20400485 0 0 0 24.625,18.03125 0.20400485,0.20400485 0 0 0 24.59375,18.0625 0.20400485,0.20400485 0 0 0 24.5625,18.125 0.20400485,0.20400485 0 0 0 24.53125,18.1875 l 0,4.25 -4.25,0 a 0.20400485,0.20400485 0 0 0 -0.03125,0.03125 0.20400485,0.20400485 0 0 0 -0.0625,0 0.20400485,0.20400485 0 0 0 -0.03125,0.03125 0.20400485,0.20400485 0 0 0 -0.03125,0.03125 0.20400485,0.20400485 0 0 0 -0.03125,0.0625 0.20400485,0.20400485 0 0 0 -0.03125,0.0625 l 0,1.90625 a 0.20400485,0.20400485 0 0 0 0.03125,0.03125 0.20400485,0.20400485 0 0 0 0,0.0625 0.20400485,0.20400485 0 0 0 0.03125,0.03125 0.20400485,0.20400485 0 0 0 0.03125,0.03125 0.20400485,0.20400485 0 0 0 0.0625,0.03125 0.20400485,0.20400485 0 0 0 0.0625,0.03125 l 4.25,0 0,4.28125 a 0.20400485,0.20400485 0 0 0 0.03125,0.03125 0.20400485,0.20400485 0 0 0 0,0.0625 0.20400485,0.20400485 0 0 0 0.03125,0.03125 0.20400485,0.20400485 0 0 0 0.03125,0.03125 0.20400485,0.20400485 0 0 0 0.0625,0.03125 0.20400485,0.20400485 0 0 0 0.0625,0.03125 l 1.90625,0 A 0.20400485,0.20400485 0 0 0 26.6875,29.25 a 0.20400485,0.20400485 0 0 0 0.0625,0 0.20400485,0.20400485 0 0 0 0.03125,-0.03125 0.20400485,0.20400485 0 0 0 0.03125,-0.03125 0.20400485,0.20400485 0 0 0 0.03125,-0.0625 0.20400485,0.20400485 0 0 0 0.03125,-0.0625 l 0,-4.28125 4.25,0 a 0.20400485,0.20400485 0 0 0 0.03125,-0.03125 0.20400485,0.20400485 0 0 0 0.0625,0 0.20400485,0.20400485 0 0 0 0.03125,-0.03125 0.20400485,0.20400485 0 0 0 0.03125,-0.03125 0.20400485,0.20400485 0 0 0 0.03125,-0.0625 0.20400485,0.20400485 0 0 0 0.03125,-0.0625 l 0,-1.90625 A 0.20400485,0.20400485 0 0 0 31.3125,22.625 a 0.20400485,0.20400485 0 0 0 0,-0.0625 A 0.20400485,0.20400485 0 0 0 31.28125,22.53125 0.20400485,0.20400485 0 0 0 31.25,22.5 0.20400485,0.20400485 0 0 0 31.1875,22.46875 0.20400485,0.20400485 0 0 0 31.125,22.4375 l -4.25,0 0,-4.25 a 0.20400485,0.20400485 0 0 0 -0.03125,-0.03125 0.20400485,0.20400485 0 0 0 0,-0.0625 A 0.20400485,0.20400485 0 0 0 26.8125,18.0625 0.20400485,0.20400485 0 0 0 26.78125,18.03125 0.20400485,0.20400485 0 0 0 26.71875,18 0.20400485,0.20400485 0 0 0 26.65625,17.96875 l -1.90625,0 z m 13.40625,0 A 0.20400485,0.20400485 0 0 0 38.125,18 0.20400485,0.20400485 0 0 0 38.0625,18 0.20400485,0.20400485 0 0 0 38.03125,18.03125 0.20400485,0.20400485 0 0 0 38,18.0625 0.20400485,0.20400485 0 0 0 37.96875,18.125 0.20400485,0.20400485 0 0 0 37.9375,18.1875 l 0,4.25 -4.25,0 a 0.20400485,0.20400485 0 0 0 -0.03125,0.03125 0.20400485,0.20400485 0 0 0 -0.0625,0 A 0.20400485,0.20400485 0 0 0 33.5625,22.5 0.20400485,0.20400485 0 0 0 33.53125,22.53125 0.20400485,0.20400485 0 0 0 33.5,22.59375 a 0.20400485,0.20400485 0 0 0 -0.03125,0.0625 l 0,1.90625 a 0.20400485,0.20400485 0 0 0 0.03125,0.03125 0.20400485,0.20400485 0 0 0 0,0.0625 0.20400485,0.20400485 0 0 0 0.03125,0.03125 0.20400485,0.20400485 0 0 0 0.03125,0.03125 0.20400485,0.20400485 0 0 0 0.0625,0.03125 0.20400485,0.20400485 0 0 0 0.0625,0.03125 l 4.25,0 0,4.28125 a 0.20400485,0.20400485 0 0 0 0.03125,0.03125 0.20400485,0.20400485 0 0 0 0,0.0625 A 0.20400485,0.20400485 0 0 0 38,29.1875 a 0.20400485,0.20400485 0 0 0 0.03125,0.03125 0.20400485,0.20400485 0 0 0 0.0625,0.03125 0.20400485,0.20400485 0 0 0 0.0625,0.03125 l 1.90625,0 a 0.20400485,0.20400485 0 0 0 0.03125,-0.03125 0.20400485,0.20400485 0 0 0 0.0625,0 0.20400485,0.20400485 0 0 0 0.03125,-0.03125 0.20400485,0.20400485 0 0 0 0.03125,-0.03125 0.20400485,0.20400485 0 0 0 0.03125,-0.0625 0.20400485,0.20400485 0 0 0 0.03125,-0.0625 l 0,-4.28125 4.25,0 A 0.20400485,0.20400485 0 0 0 44.5625,24.75 a 0.20400485,0.20400485 0 0 0 0.0625,0 0.20400485,0.20400485 0 0 0 0.03125,-0.03125 A 0.20400485,0.20400485 0 0 0 44.6875,24.6875 0.20400485,0.20400485 0 0 0 44.71875,24.625 0.20400485,0.20400485 0 0 0 44.75,24.5625 l 0,-1.90625 a 0.20400485,0.20400485 0 0 0 -0.03125,-0.03125 0.20400485,0.20400485 0 0 0 0,-0.0625 A 0.20400485,0.20400485 0 0 0 44.6875,22.53125 0.20400485,0.20400485 0 0 0 44.65625,22.5 0.20400485,0.20400485 0 0 0 44.59375,22.46875 0.20400485,0.20400485 0 0 0 44.53125,22.4375 l -4.25,0 0,-4.25 A 0.20400485,0.20400485 0 0 0 40.25,18.15625 a 0.20400485,0.20400485 0 0 0 0,-0.0625 A 0.20400485,0.20400485 0 0 0 40.21875,18.0625 0.20400485,0.20400485 0 0 0 40.1875,18.03125 0.20400485,0.20400485 0 0 0 40.125,18 0.20400485,0.20400485 0 0 0 40.0625,17.96875 l -1.90625,0 z"
       inkscape:href="#text3872"
       id="path3888"
       style="font-size:22.95467377px;font-style:normal;font-weight:normal;line-height:125%;letter-spacing:0px;word-spacing:0px;fill:#ffffff;fill-opacity:1;stroke:#3465a4;stroke-opacity:1;font-family:Sans"
       xlink:href="#text3872"
       inkscape:original="M 24.75 18.1875 L 24.75 22.65625 L 20.28125 22.65625 L 20.28125 24.5625 L 24.75 24.5625 L 24.75 29.0625 L 26.65625 29.0625 L 26.65625 24.5625 L 31.125 24.5625 L 31.125 22.65625 L 26.65625 22.65625 L 26.65625 18.1875 L 24.75 18.1875 z M 38.15625 18.1875 L 38.15625 22.65625 L 33.6875 22.65625 L 33.6875 24.5625 L 38.15625 24.5625 L 38.15625 29.0625 L 40.0625 29.0625 L 40.0625 24.5625 L 44.53125 24.5625 L 44.53125 22.65625 L 40.0625 22.65625 L 40.0625 18.1875 L 38.15625 18.1875 z "
       inkscape:radius="0.20398445"
       sodipodi:type="inkscape:offset" />
    <path
       style="font-size:22.95467377px;font-style:normal;font-weight:normal;line-height:125%;letter-spacing:0px;word-spacing:0px;fill:#ffffff;fill-opacity:1;stroke:#3465a4;stroke-opacity:1;font-family:Sans"
       d="m 10.84375,15.5 c -1.449619,1.6e-5 -2.793242,0.338725 -4,1 -1.206768,0.661307 -2.1274331,1.632249 -2.78125,2.90625 -0.2885904,0.562342 -0.4976485,1.166953 -0.65625,1.8125 l 2.28125,0 c 0.046425,-0.169253 0.099894,-0.33277 0.15625,-0.5 0.3437181,-1.019946 0.9331477,-1.832237 1.78125,-2.4375 0.848091,-0.605236 1.893437,-0.906235 3.15625,-0.90625 1.098407,1.5e-5 2.025184,0.267042 2.75,0.8125 0.724794,0.545486 1.275154,1.398207 1.65625,2.59375 l 2.15625,-0.5 C 16.902873,18.764402 16.12082,17.586904 15,16.75 13.879155,15.913127 12.487628,15.500016 10.84375,15.5 z M 3.3125,26.21875 c 0.138617,0.713213 0.3433126,1.397359 0.625,2.0625 0.5790948,1.36742 1.4216212,2.403931 2.53125,3.125 C 7.5783697,32.127319 9.041575,32.5 10.8125,32.5 c 1.711128,0 3.159391,-0.468486 4.34375,-1.40625 C 16.340583,30.155988 17.137929,28.785865 17.59375,27 L 15.4375,26.46875 c -0.298902,1.382365 -0.874401,2.422614 -1.71875,3.125 -0.844372,0.702391 -1.875787,1.031252 -3.09375,1.03125 -1.001286,2e-6 -1.921951,-0.234415 -2.78125,-0.75 C 6.9844391,29.359419 6.3447318,28.573629 5.9375,27.53125 5.7778322,27.122565 5.6622096,26.681386 5.5625,26.21875 l -2.25,0 z"
       id="path3893"
       inkscape:connector-curvature="0" />
    <path
       sodipodi:type="inkscape:offset"
       inkscape:radius="0.59501904"
       inkscape:original="M 10.84375 15.5 C 9.394131 15.500016 8.050508 15.838725 6.84375 16.5 C 5.636982 17.161307 4.7163169 18.132249 4.0625 19.40625 C 3.7739096 19.968592 3.5648515 20.573203 3.40625 21.21875 L 5.6875 21.21875 C 5.733925 21.049497 5.787394 20.88598 5.84375 20.71875 C 6.1874681 19.698804 6.7768977 18.886513 7.625 18.28125 C 8.473091 17.676014 9.518437 17.375015 10.78125 17.375 C 11.879657 17.375015 12.806434 17.642042 13.53125 18.1875 C 14.256044 18.732986 14.806404 19.585707 15.1875 20.78125 L 17.34375 20.28125 C 16.902873 18.764402 16.12082 17.586904 15 16.75 C 13.879155 15.913127 12.487628 15.500016 10.84375 15.5 z M 3.3125 26.21875 C 3.451117 26.931963 3.6558126 27.616109 3.9375 28.28125 C 4.5165948 29.64867 5.3591212 30.685181 6.46875 31.40625 C 7.5783697 32.127319 9.041575 32.5 10.8125 32.5 C 12.523628 32.5 13.971891 32.031514 15.15625 31.09375 C 16.340583 30.155988 17.137929 28.785865 17.59375 27 L 15.4375 26.46875 C 15.138598 27.851115 14.563099 28.891364 13.71875 29.59375 C 12.874378 30.296141 11.842963 30.625002 10.625 30.625 C 9.623714 30.625002 8.703049 30.390585 7.84375 29.875 C 6.9844391 29.359419 6.3447318 28.573629 5.9375 27.53125 C 5.7778322 27.122565 5.6622096 26.681386 5.5625 26.21875 L 3.3125 26.21875 z "
       xlink:href="#path3893"
       style="font-size:22.95467377px;font-style:normal;font-weight:normal;line-height:125%;letter-spacing:0px;word-spacing:0px;fill:#ffffff;fill-opacity:1;stroke:#3465a4;stroke-opacity:1;font-family:Sans"
       id="path3905"
       inkscape:href="#path3893"
       d="m 12.84375,14.90625 c -1.542301,1.7e-5 -2.986352,0.352926 -4.28125,1.0625 -1.3101692,0.717971 -2.329904,1.789636 -3.03125,3.15625 -0.3143958,0.612626 -0.5205316,1.257898 -0.6875,1.9375 a 0.59507854,0.59507854 0 0 0 0.5625,0.75 l 2.28125,0 A 0.59507854,0.59507854 0 0 0 8.25,21.375 c 0.041456,-0.151139 0.1010067,-0.304822 0.15625,-0.46875 0.3085074,-0.915462 0.8131846,-1.621488 1.5625,-2.15625 0.735836,-0.525126 1.644234,-0.781236 2.8125,-0.78125 1.001977,1.4e-5 1.801599,0.232472 2.40625,0.6875 0.602375,0.453353 1.081884,1.19689 1.4375,2.3125 a 0.59507854,0.59507854 0 0 0 0.6875,0.40625 l 2.15625,-0.5 a 0.59507854,0.59507854 0 0 0 0.4375,-0.75 c -0.470478,-1.618691 -1.333612,-2.926153 -2.5625,-3.84375 -1.234802,-0.921959 -2.756439,-1.374983 -4.5,-1.375 z M 5.1875,25.625 A 0.59507854,0.59507854 0 0 0 4.71875,26.34375 C 4.8647012,27.094699 5.0765423,27.79526 5.375,28.5 c 0.6178064,1.45883 1.5685575,2.618207 2.78125,3.40625 1.231472,0.800253 2.801846,1.1875 4.65625,1.1875 1.819734,0 3.424924,-0.506811 4.71875,-1.53125 1.303572,-1.032176 2.146093,-2.529936 2.625,-4.40625 A 0.59507854,0.59507854 0 0 0 19.75,26.4375 l -2.15625,-0.53125 a 0.59507854,0.59507854 0 0 0 -0.75,0.4375 c -0.278591,1.28843 -0.775511,2.178571 -1.5,2.78125 -0.731426,0.608437 -1.607895,0.906252 -2.71875,0.90625 -0.908416,2e-6 -1.702005,-0.196198 -2.46875,-0.65625 C 9.413937,28.929617 8.8672582,28.25256 8.5,27.3125 8.3577195,26.948319 8.2524142,26.539936 8.15625,26.09375 A 0.59507854,0.59507854 0 0 0 7.5625,25.625 l -2.25,0 a 0.59507854,0.59507854 0 0 0 -0.125,0 z" />
  </g>
</svg>
