<?xml version="1.0" encoding="UTF-8" standalone="no"?>
<!-- Created with Inkscape (http://www.inkscape.org/) -->

<svg
   xmlns:dc="http://purl.org/dc/elements/1.1/"
   xmlns:cc="http://creativecommons.org/ns#"
   xmlns:rdf="http://www.w3.org/1999/02/22-rdf-syntax-ns#"
   xmlns:svg="http://www.w3.org/2000/svg"
   xmlns="http://www.w3.org/2000/svg"
   xmlns:xlink="http://www.w3.org/1999/xlink"
   xmlns:sodipodi="http://sodipodi.sourceforge.net/DTD/sodipodi-0.dtd"
   xmlns:inkscape="http://www.inkscape.org/namespaces/inkscape"
   width="16"
   height="16"
   id="svg2985"
   version="1.1"
   inkscape:version="0.48.2 r9819"
   sodipodi:docname="favicon16.svg"
   inkscape:export-filename="../favicon48.png"
   inkscape:export-xdpi="270"
   inkscape:export-ydpi="270">
  <defs
     id="defs2987">
    <linearGradient
       id="linearGradient5012">
      <stop
         id="stop5014"
         offset="0"
         style="stop-color:#fdf188;stop-opacity:1;" />
      <stop
         id="stop5016"
         offset="1"
         style="stop-color:#d3bc00;stop-opacity:1;" />
    </linearGradient>
    <linearGradient
       id="linearGradient8543">
      <stop
         id="stop8545"
         offset="0"
         style="stop-color:#fffef5;stop-opacity:0.94117647;" />
      <stop
         id="stop8547"
         offset="1"
         style="stop-color:#fce94f;stop-opacity:0;" />
    </linearGradient>
    <linearGradient
       id="linearGradient11202">
      <stop
         id="stop11204"
         offset="0"
         style="stop-color:#c4a000;stop-opacity:1;" />
      <stop
         id="stop11206"
         offset="1"
         style="stop-color:#c4a000;stop-opacity:0;" />
    </linearGradient>
    <linearGradient
       id="linearGradient18284">
      <stop
         id="stop18286"
         offset="0"
         style="stop-color:#000000;stop-opacity:1;" />
      <stop
         style="stop-color:#000000;stop-opacity:1;"
         offset="0.5"
         id="stop20913" />
      <stop
         style="stop-color:#000000;stop-opacity:0;"
         offset="1"
         id="stop19165" />
    </linearGradient>
    <inkscape:perspective
       id="perspective47"
       inkscape:persp3d-origin="24 : 16 : 1"
       inkscape:vp_z="48 : 24 : 1"
       inkscape:vp_y="0 : 1000 : 0"
       inkscape:vp_x="0 : 24 : 1"
       sodipodi:type="inkscape:persp3d" />
  </defs>
  <sodipodi:namedview
     id="base"
     pagecolor="#ffffff"
     bordercolor="#666666"
     borderopacity="1.0"
     inkscape:pageopacity="0.0"
     inkscape:pageshadow="2"
     inkscape:zoom="1"
     inkscape:cx="14.993192"
     inkscape:cy="5.2702268"
     inkscape:current-layer="g3878"
     showgrid="false"
     inkscape:grid-bbox="true"
     inkscape:document-units="px"
     inkscape:window-width="1600"
     inkscape:window-height="1138"
     inkscape:window-x="-8"
     inkscape:window-y="-8"
     inkscape:window-maximized="1">
    <inkscape:grid
       type="xygrid"
       id="grid3853"
       empspacing="5"
       visible="true"
       enabled="false"
       snapvisiblegridlinesonly="true"
       originx="0.5px"
       originy="0.5px" />
    <inkscape:grid
       type="xygrid"
       id="grid3860"
       empspacing="5"
       visible="true"
       enabled="false"
       snapvisiblegridlinesonly="false" />
  </sodipodi:namedview>
  <metadata
     id="metadata2990">
    <rdf:RDF>
      <cc:Work
         rdf:about="">
        <dc:format>image/svg+xml</dc:format>
        <dc:type
           rdf:resource="http://purl.org/dc/dcmitype/StillImage" />
        <dc:title></dc:title>
      </cc:Work>
    </rdf:RDF>
  </metadata>
  <g
     id="layer1"
     inkscape:label="Layer 1"
     inkscape:groupmode="layer"
     transform="translate(0,-32)">
    <rect
       style="fill:#729fcf;fill-opacity:1;stroke:#3465a4;stroke-width:0.5;stroke-miterlimit:4;stroke-dasharray:none"
       id="rect3083"
       width="15"
       height="15"
       x="0.5"
       y="32.5"
       ry="2.5085325" />
  </g>
  <g
     inkscape:groupmode="layer"
     id="layer2"
     inkscape:label="Text"
     style="display:none"
     transform="translate(0,-32)">
    <text
       xml:space="preserve"
       style="font-size:22.95467377px;font-style:normal;font-weight:normal;line-height:125%;letter-spacing:0px;word-spacing:0px;fill:#ffffff;fill-opacity:1;stroke:#3465a4;stroke-opacity:1;font-family:Sans"
       x="3.9393382"
       y="32.21571"
       id="text3856"
       sodipodi:linespacing="125%"><tspan
         sodipodi:role="line"
         id="tspan3858"
         x="3.9393382"
         y="32.21571"
         style="letter-spacing:0;fill:#ffffff;fill-opacity:1;stroke:#3465a4;stroke-opacity:1"
         dx="0 -1.642857 -1.4999999">C++</tspan></text>
  </g>
  <g
     inkscape:label="Text with linked offset"
     id="g3862"
     inkscape:groupmode="layer"
     style="display:inline"
     transform="translate(0,-32)">
    <g
       id="g3923"
       transform="matrix(0.73639369,-0.19731608,0.19731608,0.73639369,-5.0760683,11.074626)">
      <g
         id="g3944"
         transform="matrix(0.81180392,-0.17645946,0.17645946,0.81180392,-4.4321216,8.192145)">
        <text
           xml:space="preserve"
           style="font-size:10.00806713px;font-style:normal;font-variant:normal;font-weight:normal;font-stretch:normal;text-align:start;line-height:125%;letter-spacing:0px;word-spacing:0px;writing-mode:lr-tb;text-anchor:start;fill:#ffffff;fill-opacity:1;stroke:#3465a4;stroke-width:0.43599257;stroke-opacity:1;font-family:Delicious Heavy;-inkscape-font-specification:'Delicious Heavy,'"
           x="4.5531902"
           y="44.760559"
           id="text3872"
           sodipodi:linespacing="125%"><tspan
             dy="-0.21799628"
             sodipodi:role="line"
             id="tspan3874"
             x="4.5531902"
             y="44.760559"
             style="font-size:10.00806713px;font-style:normal;font-variant:normal;font-weight:normal;font-stretch:normal;text-align:start;line-height:125%;letter-spacing:0;writing-mode:lr-tb;text-anchor:start;fill:#ffffff;fill-opacity:1;stroke:#3465a4;stroke-width:0.43599257;stroke-opacity:1;font-family:Delicious Heavy;-inkscape-font-specification:'Delicious Heavy,'"
             dx="-0.093426898 0.92566067">++</tspan></text>
        <path
           sodipodi:type="inkscape:offset"
           inkscape:radius="0.5185799"
           inkscape:original="M 6.15625 40 L 6.15625 41.4375 L 4.6875 41.4375 L 4.6875 42.625 L 6.15625 42.625 L 6.15625 44.09375 L 7.4375 44.09375 L 7.4375 42.625 L 8.96875 42.625 L 8.96875 41.4375 L 7.4375 41.4375 L 7.4375 40 L 6.15625 40 z M 11.8125 40 L 11.8125 41.4375 L 10.3125 41.4375 L 10.3125 42.625 L 11.8125 42.625 L 11.8125 44.09375 L 13.09375 44.09375 L 13.09375 42.625 L 14.59375 42.625 L 14.59375 41.4375 L 13.09375 41.4375 L 13.09375 40 L 11.8125 40 z "
           xlink:href="#text3872"
           style="font-size:22.95467376999999900px;font-style:normal;font-weight:normal;line-height:125%;letter-spacing:0px;word-spacing:0px;fill:#ffffff;fill-opacity:1;stroke:#204a87;stroke-width:1.18418342;stroke-miterlimit:4;stroke-opacity:1;stroke-dasharray:none;font-family:Sans"
           id="path3876"
           inkscape:href="#text3872"
           d="M 6.09375,39.46875 A 0.51863176,0.51863176 0 0 0 5.625,40 l 0,0.90625 -0.9375,0 A 0.51863176,0.51863176 0 0 0 4.15625,41.4375 l 0,1.1875 a 0.51863176,0.51863176 0 0 0 0.53125,0.53125 l 0.9375,0 0,0.9375 A 0.51863176,0.51863176 0 0 0 6.15625,44.625 l 1.28125,0 a 0.51863176,0.51863176 0 0 0 0.53125,-0.53125 l 0,-0.9375 1,0 A 0.51863176,0.51863176 0 0 0 9.5,42.625 l 0,-1.1875 A 0.51863176,0.51863176 0 0 0 8.96875,40.90625 l -1,0 0,-0.90625 A 0.51863176,0.51863176 0 0 0 7.4375,39.46875 l -1.28125,0 a 0.51863176,0.51863176 0 0 0 -0.0625,0 z m 5.65625,0 A 0.51863176,0.51863176 0 0 0 11.28125,40 l 0,0.90625 -0.96875,0 A 0.51863176,0.51863176 0 0 0 9.78125,41.4375 l 0,1.1875 a 0.51863176,0.51863176 0 0 0 0.53125,0.53125 l 0.96875,0 0,0.9375 A 0.51863176,0.51863176 0 0 0 11.8125,44.625 l 1.28125,0 A 0.51863176,0.51863176 0 0 0 13.625,44.09375 l 0,-0.9375 0.96875,0 A 0.51863176,0.51863176 0 0 0 15.125,42.625 l 0,-1.1875 a 0.51863176,0.51863176 0 0 0 -0.53125,-0.53125 l -0.96875,0 0,-0.90625 a 0.51863176,0.51863176 0 0 0 -0.53125,-0.53125 l -1.28125,0 a 0.51863176,0.51863176 0 0 0 -0.0625,0 z" />
      </g>
      <g
         id="g3939"
         transform="matrix(1.2621738,0,0,1.2621738,1.420408,-12.533889)">
        <text
           sodipodi:linespacing="125%"
           id="text3864"
           y="48.044121"
           x="-2.6782994"
           style="font-size:17.11497688000000000px;font-style:normal;font-variant:normal;font-weight:normal;font-stretch:normal;text-align:start;line-height:125%;letter-spacing:0px;word-spacing:0px;writing-mode:lr-tb;text-anchor:start;fill:#ffffff;fill-opacity:1;stroke:#3465a4;stroke-width:1.03923691000000010;stroke-opacity:1;font-family:Delicious Heavy;-inkscape-font-specification:'Delicious Heavy,';stroke-miterlimit:4;stroke-dasharray:none"
           xml:space="preserve"><tspan
             dx="0"
             style="font-size:17.11497688000000000px;font-style:normal;font-variant:normal;font-weight:normal;font-stretch:normal;text-align:start;line-height:125%;letter-spacing:0;writing-mode:lr-tb;text-anchor:start;fill:#ffffff;fill-opacity:1;stroke:#3465a4;stroke-width:1.03923691000000010;stroke-opacity:1;font-family:Delicious Heavy;-inkscape-font-specification:'Delicious Heavy,';stroke-miterlimit:4;stroke-dasharray:none"
             y="48.044121"
             x="-2.6782994"
             id="tspan3866"
             sodipodi:role="line"
             dy="0">C</tspan></text>
        <path
           sodipodi:type="inkscape:offset"
           inkscape:radius="0.43363348"
           inkscape:original="M 2.4375 37 C 1.4274083 37.019978 0.58354747 37.31688 -0.09375 37.875 C -0.77105265 38.433141 -1.284291 39.14332 -1.625 40 C -1.9657111 40.856696 -2.1246836 41.740617 -2.125 42.65625 C -2.1289093 43.620386 -1.9960944 44.521167 -1.6875 45.375 C -1.3789076 46.228838 -0.88675573 46.930587 -0.21875 47.46875 C 0.4492508 48.006914 1.3319255 48.295385 2.40625 48.3125 C 2.9450023 48.310361 3.5100592 48.217373 4.09375 48.03125 C 4.6774272 47.845127 5.1662296 47.563184 5.59375 47.21875 L 4.5 45.53125 C 4.2168867 45.714166 3.8956453 45.856436 3.53125 45.96875 C 3.1668423 46.081068 2.8031952 46.153043 2.46875 46.15625 C 1.8884283 46.138715 1.4532186 45.938816 1.15625 45.5625 C 0.85927376 45.186189 0.66360059 44.712145 0.5625 44.1875 C 0.46139293 43.662863 0.39895705 43.181276 0.40625 42.71875 C 0.4039227 42.313601 0.49167084 41.834105 0.625 41.28125 C 0.75832257 40.728408 0.95312941 40.237947 1.25 39.8125 C 1.5468627 39.38707 1.9491962 39.179184 2.4375 39.15625 C 2.7487692 39.155546 3.0997072 39.186542 3.46875 39.25 C 3.8377805 39.313476 4.1518909 39.395053 4.4375 39.53125 L 5.375 37.8125 C 4.9859881 37.523699 4.5224766 37.318011 3.96875 37.1875 C 3.4150101 37.057011 2.9035146 36.997871 2.4375 37 z "
           xlink:href="#text3864"
           style="font-size:22.95467376999999900px;font-style:normal;font-weight:normal;line-height:125%;letter-spacing:0px;word-spacing:0px;fill:#ffffff;fill-opacity:1;stroke:#204a87;stroke-opacity:1;font-family:Sans;stroke-width:1.03923691000000010;stroke-miterlimit:4;stroke-dasharray:none"
           id="path3870"
           inkscape:href="#text3864"
           d="m 2.4375,36.5625 c -1.0902415,0.02156 -2.05702919,0.346212 -2.8125,0.96875 -0.7336511,0.604576 -1.2906901,1.393335 -1.65625,2.3125 -0.3614453,0.908831 -0.5309163,1.846772 -0.53125,2.8125 -0.00408,1.005054 0.1405363,1.966883 0.46875,2.875 0.3328712,0.921014 0.86336,1.692829 1.59375,2.28125 0.75437374,0.607749 1.7581131,0.919209 2.90625,0.9375 0.5874438,-0.0023 1.1914629,-0.114468 1.8125,-0.3125 0.6376777,-0.203343 1.1930106,-0.501789 1.65625,-0.875 A 0.43367684,0.43367684 0 0 0 5.96875,46.96875 L 4.875,45.28125 A 0.43367684,0.43367684 0 0 0 4.25,45.15625 C 4.006387,45.313645 3.7406955,45.459417 3.40625,45.5625 3.0696113,45.666259 2.7440035,45.716111 2.46875,45.71875 1.9813305,45.704022 1.7155997,45.554456 1.5,45.28125 1.2553517,44.971246 1.0906128,44.56397 1,44.09375 0.9019468,43.584959 0.83714694,43.137522 0.84375,42.71875 c -0.001956,-0.340575 0.0574019,-0.804293 0.1875,-1.34375 0.1244566,-0.516078 0.3041833,-0.942305 0.5625,-1.3125 0.2228292,-0.319334 0.4854246,-0.445392 0.84375,-0.46875 0.009,-2e-5 0.022152,-3.9e-5 0.03125,0 0.275576,0.0012 0.6015551,0.03598 0.9375,0.09375 0.3483739,0.05992 0.6089143,0.138015 0.84375,0.25 A 0.43367684,0.43367684 0 0 0 4.8125,39.75 L 5.75,38.03125 A 0.43367684,0.43367684 0 0 0 5.625,37.46875 C 5.1827418,37.140419 4.6626541,36.891454 4.0625,36.75 3.4792041,36.612546 2.9416501,36.560197 2.4375,36.5625 z" />
      </g>
    </g>
  </g>
  <g
     style="display:none"
     inkscape:groupmode="layer"
     id="g3878"
     inkscape:label="Cut C Text with linked offset"
     transform="translate(0,-32)">
    <text
       sodipodi:linespacing="125%"
       id="text3884"
       y="42.39534"
       x="6.7040744"
       style="font-size:7.08176088px;font-style:normal;font-weight:normal;line-height:125%;letter-spacing:0px;word-spacing:0px;fill:#ffffff;fill-opacity:1;stroke:#3465a4;stroke-width:0.30851063;stroke-opacity:1;font-family:Sans"
       xml:space="preserve"><tspan
         dx="-0.066109367 -1.5738459e-008"
         style="letter-spacing:0;fill:#ffffff;fill-opacity:1;stroke:#3465a4;stroke-width:0.30851063;stroke-opacity:1"
         y="42.39534"
         x="6.7040744"
         id="tspan3886"
         sodipodi:role="line"
         dy="-0.15425532">++</tspan></text>
    <path
       d="M 24.75,17.96875 A 0.20400485,0.20400485 0 0 0 24.71875,18 0.20400485,0.20400485 0 0 0 24.65625,18 0.20400485,0.20400485 0 0 0 24.625,18.03125 0.20400485,0.20400485 0 0 0 24.59375,18.0625 0.20400485,0.20400485 0 0 0 24.5625,18.125 0.20400485,0.20400485 0 0 0 24.53125,18.1875 l 0,4.25 -4.25,0 a 0.20400485,0.20400485 0 0 0 -0.03125,0.03125 0.20400485,0.20400485 0 0 0 -0.0625,0 0.20400485,0.20400485 0 0 0 -0.03125,0.03125 0.20400485,0.20400485 0 0 0 -0.03125,0.03125 0.20400485,0.20400485 0 0 0 -0.03125,0.0625 0.20400485,0.20400485 0 0 0 -0.03125,0.0625 l 0,1.90625 a 0.20400485,0.20400485 0 0 0 0.03125,0.03125 0.20400485,0.20400485 0 0 0 0,0.0625 0.20400485,0.20400485 0 0 0 0.03125,0.03125 0.20400485,0.20400485 0 0 0 0.03125,0.03125 0.20400485,0.20400485 0 0 0 0.0625,0.03125 0.20400485,0.20400485 0 0 0 0.0625,0.03125 l 4.25,0 0,4.28125 a 0.20400485,0.20400485 0 0 0 0.03125,0.03125 0.20400485,0.20400485 0 0 0 0,0.0625 0.20400485,0.20400485 0 0 0 0.03125,0.03125 0.20400485,0.20400485 0 0 0 0.03125,0.03125 0.20400485,0.20400485 0 0 0 0.0625,0.03125 0.20400485,0.20400485 0 0 0 0.0625,0.03125 l 1.90625,0 A 0.20400485,0.20400485 0 0 0 26.6875,29.25 a 0.20400485,0.20400485 0 0 0 0.0625,0 0.20400485,0.20400485 0 0 0 0.03125,-0.03125 0.20400485,0.20400485 0 0 0 0.03125,-0.03125 0.20400485,0.20400485 0 0 0 0.03125,-0.0625 0.20400485,0.20400485 0 0 0 0.03125,-0.0625 l 0,-4.28125 4.25,0 a 0.20400485,0.20400485 0 0 0 0.03125,-0.03125 0.20400485,0.20400485 0 0 0 0.0625,0 0.20400485,0.20400485 0 0 0 0.03125,-0.03125 0.20400485,0.20400485 0 0 0 0.03125,-0.03125 0.20400485,0.20400485 0 0 0 0.03125,-0.0625 0.20400485,0.20400485 0 0 0 0.03125,-0.0625 l 0,-1.90625 A 0.20400485,0.20400485 0 0 0 31.3125,22.625 a 0.20400485,0.20400485 0 0 0 0,-0.0625 A 0.20400485,0.20400485 0 0 0 31.28125,22.53125 0.20400485,0.20400485 0 0 0 31.25,22.5 0.20400485,0.20400485 0 0 0 31.1875,22.46875 0.20400485,0.20400485 0 0 0 31.125,22.4375 l -4.25,0 0,-4.25 a 0.20400485,0.20400485 0 0 0 -0.03125,-0.03125 0.20400485,0.20400485 0 0 0 0,-0.0625 A 0.20400485,0.20400485 0 0 0 26.8125,18.0625 0.20400485,0.20400485 0 0 0 26.78125,18.03125 0.20400485,0.20400485 0 0 0 26.71875,18 0.20400485,0.20400485 0 0 0 26.65625,17.96875 l -1.90625,0 z m 13.40625,0 A 0.20400485,0.20400485 0 0 0 38.125,18 0.20400485,0.20400485 0 0 0 38.0625,18 0.20400485,0.20400485 0 0 0 38.03125,18.03125 0.20400485,0.20400485 0 0 0 38,18.0625 0.20400485,0.20400485 0 0 0 37.96875,18.125 0.20400485,0.20400485 0 0 0 37.9375,18.1875 l 0,4.25 -4.25,0 a 0.20400485,0.20400485 0 0 0 -0.03125,0.03125 0.20400485,0.20400485 0 0 0 -0.0625,0 A 0.20400485,0.20400485 0 0 0 33.5625,22.5 0.20400485,0.20400485 0 0 0 33.53125,22.53125 0.20400485,0.20400485 0 0 0 33.5,22.59375 a 0.20400485,0.20400485 0 0 0 -0.03125,0.0625 l 0,1.90625 a 0.20400485,0.20400485 0 0 0 0.03125,0.03125 0.20400485,0.20400485 0 0 0 0,0.0625 0.20400485,0.20400485 0 0 0 0.03125,0.03125 0.20400485,0.20400485 0 0 0 0.03125,0.03125 0.20400485,0.20400485 0 0 0 0.0625,0.03125 0.20400485,0.20400485 0 0 0 0.0625,0.03125 l 4.25,0 0,4.28125 a 0.20400485,0.20400485 0 0 0 0.03125,0.03125 0.20400485,0.20400485 0 0 0 0,0.0625 A 0.20400485,0.20400485 0 0 0 38,29.1875 a 0.20400485,0.20400485 0 0 0 0.03125,0.03125 0.20400485,0.20400485 0 0 0 0.0625,0.03125 0.20400485,0.20400485 0 0 0 0.0625,0.03125 l 1.90625,0 a 0.20400485,0.20400485 0 0 0 0.03125,-0.03125 0.20400485,0.20400485 0 0 0 0.0625,0 0.20400485,0.20400485 0 0 0 0.03125,-0.03125 0.20400485,0.20400485 0 0 0 0.03125,-0.03125 0.20400485,0.20400485 0 0 0 0.03125,-0.0625 0.20400485,0.20400485 0 0 0 0.03125,-0.0625 l 0,-4.28125 4.25,0 A 0.20400485,0.20400485 0 0 0 44.5625,24.75 a 0.20400485,0.20400485 0 0 0 0.0625,0 0.20400485,0.20400485 0 0 0 0.03125,-0.03125 A 0.20400485,0.20400485 0 0 0 44.6875,24.6875 0.20400485,0.20400485 0 0 0 44.71875,24.625 0.20400485,0.20400485 0 0 0 44.75,24.5625 l 0,-1.90625 a 0.20400485,0.20400485 0 0 0 -0.03125,-0.03125 0.20400485,0.20400485 0 0 0 0,-0.0625 A 0.20400485,0.20400485 0 0 0 44.6875,22.53125 0.20400485,0.20400485 0 0 0 44.65625,22.5 0.20400485,0.20400485 0 0 0 44.59375,22.46875 0.20400485,0.20400485 0 0 0 44.53125,22.4375 l -4.25,0 0,-4.25 A 0.20400485,0.20400485 0 0 0 40.25,18.15625 a 0.20400485,0.20400485 0 0 0 0,-0.0625 A 0.20400485,0.20400485 0 0 0 40.21875,18.0625 0.20400485,0.20400485 0 0 0 40.1875,18.03125 0.20400485,0.20400485 0 0 0 40.125,18 0.20400485,0.20400485 0 0 0 40.0625,17.96875 l -1.90625,0 z"
       inkscape:href="#text3872"
       id="path3888"
       style="font-size:22.95467377px;font-style:normal;font-weight:normal;line-height:125%;letter-spacing:0px;word-spacing:0px;fill:#ffffff;fill-opacity:1;stroke:#3465a4;stroke-opacity:1;font-family:Sans"
       xlink:href="#text3872"
       inkscape:original="M 6.15625 40 L 6.15625 41.4375 L 4.6875 41.4375 L 4.6875 42.625 L 6.15625 42.625 L 6.15625 44.09375 L 7.4375 44.09375 L 7.4375 42.625 L 8.96875 42.625 L 8.96875 41.4375 L 7.4375 41.4375 L 7.4375 40 L 6.15625 40 z M 11.8125 40 L 11.8125 41.4375 L 10.3125 41.4375 L 10.3125 42.625 L 11.8125 42.625 L 11.8125 44.09375 L 13.09375 44.09375 L 13.09375 42.625 L 14.59375 42.625 L 14.59375 41.4375 L 13.09375 41.4375 L 13.09375 40 L 11.8125 40 z "
       inkscape:radius="0.20398445"
       sodipodi:type="inkscape:offset"
       transform="matrix(0.30851064,0,0,0.30851064,0.77626325,32.456449)" />
    <path
       style="font-size:22.95467377px;font-style:normal;font-weight:normal;line-height:125%;letter-spacing:0px;word-spacing:0px;fill:#ffffff;fill-opacity:1;stroke:#3465a4;stroke-width:0.30851063;stroke-opacity:1;font-family:Sans"
       d="m 4.1216755,37.238364 c -0.4472229,5e-6 -0.8617449,0.1045 -1.2340425,0.308511 -0.3723008,0.20402 -0.6563358,0.503566 -0.8580453,0.896609 -0.089033,0.173488 -0.1535298,0.360017 -0.2024601,0.559175 l 0.7037899,0 c 0.014323,-0.05222 0.030818,-0.102663 0.048205,-0.154255 0.1060407,-0.314664 0.287886,-0.565265 0.5495346,-0.751995 0.2616451,-0.186722 0.5841455,-0.279583 0.9737367,-0.279588 0.3388702,5e-6 0.6247908,0.08239 0.8484043,0.250665 0.2236066,0.168289 0.3933985,0.431362 0.5109707,0.8002 L 6.1269947,38.71343 C 5.9909794,38.245467 5.7497077,37.882196 5.4039229,37.624002 5.0581302,37.365818 4.6288294,37.238369 4.1216755,37.238364 z m -2.3234707,3.306848 c 0.042765,0.220034 0.1059156,0.431101 0.1928191,0.636304 0.1786569,0.421863 0.4385853,0.741638 0.7809176,0.964095 0.3423295,0.222458 0.7937439,0.337434 1.3400931,0.337434 0.5279011,0 0.9747057,-0.144533 1.340093,-0.433843 0.3653794,-0.28931 0.6113691,-0.712007 0.7519947,-1.262966 L 5.5388963,40.62234 c -0.092214,0.426474 -0.2697621,0.747402 -0.5302527,0.964096 -0.2604977,0.216695 -0.5787002,0.318152 -0.9544548,0.318151 -0.3089074,10e-7 -0.5929423,-0.07232 -0.8580452,-0.231383 C 2.931037,41.514142 2.7336805,41.271718 2.6080452,40.950133 2.558786,40.824049 2.5231152,40.687941 2.4923537,40.545212 l -0.6941489,0 z"
       id="path3893"
       inkscape:connector-curvature="0" />
    <path
       sodipodi:type="inkscape:offset"
       inkscape:radius="0.59501904"
       inkscape:original="M 4.125 37.25 C 3.6777771 37.250005 3.2472976 37.358489 2.875 37.5625 C 2.5026992 37.76652 2.2329595 38.044457 2.03125 38.4375 C 1.942217 38.610988 1.8614303 38.800842 1.8125 39 L 2.53125 39 C 2.545573 38.94778 2.576363 38.895342 2.59375 38.84375 C 2.6997907 38.529086 2.8633514 38.28048 3.125 38.09375 C 3.3866451 37.907028 3.7041588 37.812505 4.09375 37.8125 C 4.4326202 37.812505 4.7138865 37.894225 4.9375 38.0625 C 5.1611066 38.230789 5.3511778 38.506162 5.46875 38.875 L 6.125 38.71875 C 5.9889847 38.250787 5.7520348 37.883194 5.40625 37.625 C 5.0604573 37.366816 4.6321539 37.250005 4.125 37.25 z M 1.8125 40.53125 C 1.855265 40.751284 1.9130965 40.982297 2 41.1875 C 2.1786569 41.609363 2.4389177 41.933793 2.78125 42.15625 C 3.1235795 42.378708 3.5786508 42.46875 4.125 42.46875 C 4.6529011 42.46875 5.0721127 42.35181 5.4375 42.0625 C 5.8028794 41.77319 6.0781244 41.332209 6.21875 40.78125 L 5.53125 40.625 C 5.439036 41.051474 5.2604906 41.377056 5 41.59375 C 4.7395023 41.810445 4.4382546 41.906251 4.0625 41.90625 C 3.7535926 41.906251 3.4526029 41.846563 3.1875 41.6875 C 2.9223934 41.528438 2.7193853 41.259085 2.59375 40.9375 C 2.5444908 40.811416 2.5307615 40.673979 2.5 40.53125 L 1.8125 40.53125 z "
       xlink:href="#path3893"
       style="font-size:22.95467377px;font-style:normal;font-weight:normal;line-height:125%;letter-spacing:0px;word-spacing:0px;fill:#ffffff;fill-opacity:1;stroke:#3465a4;stroke-opacity:1;font-family:Sans"
       id="path3905"
       inkscape:href="#path3893"
       d="m 4.125,36.65625 c -0.5434422,6e-6 -1.0673946,0.120817 -1.53125,0.375 -0.4658036,0.255259 -0.8456806,0.641622 -1.09375,1.125 -0.1027876,0.20029 -0.1857682,0.426061 -0.25,0.6875 a 0.59507854,0.59507854 0 0 0 0.5625,0.75 l 0.71875,0 a 0.59507854,0.59507854 0 0 0 0.5625,-0.4375 c -0.016338,0.05956 0.016187,0.01242 0.0625,-0.125 0.077197,-0.229075 0.1586769,-0.358972 0.3125,-0.46875 0.1536585,-0.109658 0.3316474,-0.156246 0.625,-0.15625 0.2432141,4e-6 0.3939777,0.04521 0.5,0.125 0.1038701,0.07817 0.2252579,0.257561 0.3125,0.53125 a 0.59507854,0.59507854 0 0 0 0.6875,0.40625 L 6.25,39.3125 a 0.59507854,0.59507854 0 0 0 0.4375,-0.75 C 6.5231006,37.996881 6.2083083,37.498464 5.75,37.15625 5.2844112,36.808621 4.7235164,36.656256 4.125,36.65625 z M 1.6875,39.9375 a 0.59507854,0.59507854 0 0 0 -0.46875,0.71875 c 0.047051,0.242088 0.1062764,0.484419 0.21875,0.75 0.2168589,0.51207 0.5828209,0.958598 1.03125,1.25 0.4828391,0.313766 1.0445254,0.40625 1.65625,0.40625 0.615773,0 1.2096404,-0.152886 1.6875,-0.53125 0.482064,-0.381702 0.8009279,-0.936238 0.96875,-1.59375 a 0.59507854,0.59507854 0 0 0 -0.4375,-0.75 L 5.65625,40.03125 A 0.59507854,0.59507854 0 0 0 4.9375,40.5 C 4.8655955,40.832546 4.7629854,41.010214 4.625,41.125 4.4715998,41.252606 4.3371126,41.312501 4.0625,41.3125 3.8302414,41.312501 3.6510342,41.278121 3.5,41.1875 3.3740978,41.11196 3.2438077,40.942869 3.15625,40.71875 c -0.00956,-0.02448 -0.022846,-0.128512 -0.0625,-0.3125 A 0.59507854,0.59507854 0 0 0 2.5,39.9375 l -0.6875,0 a 0.59507854,0.59507854 0 0 0 -0.125,0 z" />
  </g>
</svg>
